<svg version="1.1" id="Layer_1" x="0px" y="0px" viewBox="0 0 444.292 444.292" style="enable-background:new 0 0 444.292 444.292;" xmlns="http://www.w3.org/2000/svg" xmlns:bx="https://boxy-svg.com">
  <defs>
    <style bx:fonts="Atma">@import url(https://fonts.googleapis.com/css2?family=Atma%3Aital%2Cwght%400%2C300%3B0%2C400%3B0%2C500%3B0%2C600%3B0%2C700&amp;display=swap);</style>
  </defs>
  <g style="" transform="matrix(0.734271, 0, 0, 0.734271, 62.618565, 25.75882)">
    <g>
      <g>
        <path d="M335.908,239.537c22.838-27.966,34.514-63.317,32.876-99.542c-1.645-36.399-16.866-70.783-42.859-96.818
				c-25.994-26.036-60.354-41.311-96.749-43.01c-40.585-1.899-79.063,12.46-108.361,40.421
				c-29.314,27.978-45.458,65.695-45.458,106.205c0,33.063,10.741,64.282,31.062,90.28c32.072,41.033,61.029,82.52,86.105,123.345
				v22.434h-2.396c-4.142,0-7.5,3.358-7.5,7.5v30.156c0,13.114,10.669,23.784,23.783,23.784h31.356
				c13.114,0,23.784-10.669,23.784-23.784v-30.156c0-4.142-3.358-7.5-7.5-7.5h-2.396v-22.459
				C279.534,314.363,307.107,274.804,335.908,239.537z M118.238,227.836c-18.24-23.336-27.881-51.36-27.881-81.043
				c0-36.37,14.495-70.234,40.815-95.353c16.289-15.546,35.745-26.399,56.852-32.011c-20.326,25.546-33.063,73.684-33.063,127.364
				c0,32.172,4.501,62.617,13.017,88.043c12.498,37.314,23.888,75.009,33.94,112.252
				C177.338,307.556,149.223,267.479,118.238,227.836z M246.551,420.508c0,4.843-3.94,8.784-8.784,8.784h-31.356
				c-4.843,0-8.783-3.94-8.783-8.784v-22.656h48.923V420.508z M207.524,382.852V365.79h29.132v17.062H207.524z M242.319,346.889
				c8.912-33.59,17.727-63.486,26.839-91.023c1.301-3.933-0.832-8.175-4.764-9.476c-3.932-1.302-8.175,0.832-9.476,4.764
				c-9.903,29.93-19.452,62.575-29.139,99.635h-7.333c-10.617-39.997-22.802-80.581-36.245-120.717
				c-8.008-23.91-12.24-52.707-12.24-83.28c0-55.256,14.382-105.281,35.788-124.48c6.074-5.448,12.282-7.873,18.449-7.198
				c11.809,1.287,23.928,14.522,33.25,36.312c10.2,23.843,16.176,55.469,16.827,89.054c0.427,22.021-1.332,43.206-5.227,62.965
				c-0.801,4.064,1.844,8.007,5.908,8.809c4.06,0.803,8.007-1.844,8.809-5.908c4.102-20.807,5.954-43.065,5.507-66.156
				c-0.687-35.469-7.091-69.088-18.033-94.663c-4.427-10.349-9.495-19.084-15.037-26.051c22.129,5.946,42.513,17.677,59.109,34.3
				c23.344,23.382,37.013,54.243,38.489,86.897c1.47,32.532-9.01,64.273-29.51,89.375
				C296.247,264.387,269.381,302.689,242.319,346.889z" style="fill: rgb(50, 185, 77);"></path>
        <path d="M268.766,223.103c0.378-0.074,1.977-0.399-0.025,0.003c-0.065,0.014-0.061,0.014-0.02,0.006
				c-1.421,0.306-2.792,0.994-3.81,2.044c-4.725,4.593-1.169,12.788,5.3,12.8c5.917,0.011,9.507-6.848,6.19-11.722
				C274.74,223.794,271.664,222.531,268.766,223.103z" style="fill: rgb(50, 185, 77);"></path>
      </g>
    </g>
  </g>
  <g></g>
  <g></g>
  <g></g>
  <g></g>
  <g></g>
  <g></g>
  <g></g>
  <g></g>
  <g></g>
  <g></g>
  <g></g>
  <g></g>
  <g></g>
  <g></g>
  <g></g>
  <text style="fill: rgb(50, 185, 77); font-family: Atma; font-size: 45.1px; font-weight: 600; stroke-linecap: round; white-space: pre;" x="102.518" y="409.254">TakeMeThere</text>
</svg>